<svg version="1.1" id="Layer_1" xmlns="http://www.w3.org/2000/svg" xmlns:xlink="http://www.w3.org/1999/xlink" x="0px" y="0px"
	 width="100%" viewBox="0 0 432 128" enable-background="new 0 0 432 128" xml:space="preserve">
<path fill="#FEFEFE" opacity="1.000000" stroke="none" 
	d="
M313.000000,129.000000 
	C208.666672,129.000000 104.833359,129.000000 1.000028,129.000000 
	C1.000019,86.333351 1.000019,43.666702 1.000009,1.000039 
	C144.999969,1.000026 288.999939,1.000026 432.999939,1.000013 
	C432.999939,43.666626 432.999939,86.333252 432.999969,128.999939 
	C393.166656,129.000000 353.333344,129.000000 313.000000,129.000000 
M34.697632,61.710346 
	C34.697632,61.710346 34.622978,61.699417 34.074459,62.091648 
	C32.478893,62.659630 30.883327,63.227615 28.781387,63.403168 
	C27.582201,62.601357 26.383013,61.799545 25.001131,60.875584 
	C23.194538,62.957272 21.432661,64.987434 19.561377,67.143661 
	C23.772875,70.371651 26.045145,68.443428 28.754635,65.163055 
	C30.695957,65.960899 32.739384,66.577873 34.553085,67.601776 
	C36.887585,68.919685 38.968189,69.822815 40.997997,66.596146 
	C40.997997,66.596146 41.058132,66.169632 41.682117,65.848824 
	C42.670883,65.650085 43.659649,65.451347 44.562218,65.269936 
	C44.705994,71.541298 39.528866,72.752068 36.225155,75.794838 
	C33.770020,78.056061 31.958364,78.303307 29.358179,76.770111 
	C29.358179,76.770111 29.303812,76.787285 29.381657,76.323555 
	C29.381657,76.323555 29.065891,75.975136 28.728468,75.346207 
	C26.821003,75.342758 24.302557,74.560638 23.123631,75.485687 
	C19.922501,77.997437 17.541473,78.759201 14.293332,75.471588 
	C13.309039,74.475327 10.185428,74.633476 8.706892,75.457047 
	C7.866784,75.925011 8.373553,78.810951 8.352110,81.325745 
	C10.701383,83.900024 12.935743,83.915215 15.686202,80.565834 
	C17.967838,80.947113 20.241108,81.393112 22.533718,81.689522 
	C24.422283,81.933678 26.333771,82.000542 28.760296,81.851303 
	C28.945452,81.327599 29.130608,80.803902 29.364584,80.281105 
	C29.364584,80.281105 29.413404,80.281204 30.197271,80.074112 
	C31.419641,80.639275 33.433067,80.930267 33.739040,81.813057 
	C36.151817,88.774414 37.574516,89.968849 44.713032,90.014290 
	C46.332962,90.024597 47.953018,90.015800 49.797707,90.015800 
	C49.797707,92.931198 49.797707,95.323997 49.797707,98.478271 
	C45.188271,97.327637 40.532898,100.283546 36.526409,95.887619 
	C35.745682,95.031013 31.939634,95.513420 30.993341,96.624908 
	C30.047014,97.736427 30.215656,101.040779 31.238041,102.209480 
	C32.129749,103.228806 34.963402,102.986641 36.808548,102.628883 
	C39.377865,102.130714 41.770691,100.700272 44.341412,100.237839 
	C46.692978,99.814819 49.180595,100.148094 52.178658,100.148094 
	C52.178658,96.406212 52.178658,93.348579 52.178658,90.262779 
	C56.033997,90.262779 59.303051,90.262779 63.197144,90.262779 
	C62.747372,96.239471 62.318794,101.934563 61.776859,109.135941 
	C64.623009,107.650551 66.757378,107.108902 67.895744,105.739380 
	C68.642616,104.840851 68.586258,101.960487 67.794777,101.319405 
	C63.861637,98.133667 65.258095,94.281357 65.499168,90.381821 
	C67.871979,90.381821 69.928864,90.381821 71.960411,90.381821 
	C72.235016,92.675903 72.466888,94.612961 72.699951,96.560028 
	C74.581909,96.841637 76.153748,97.076836 78.972694,97.498650 
	C77.870232,103.506401 76.836983,109.136978 75.812073,114.890945 
	C75.812073,114.890945 75.689835,114.872139 75.041840,115.231735 
	C75.631172,116.868286 76.220497,118.504837 77.323776,120.686958 
	C82.766785,120.771927 84.075630,118.903603 81.695473,113.183342 
	C77.837212,108.050034 80.801811,102.514412 79.975479,97.172302 
	C84.365646,97.172302 87.978111,97.172302 92.881088,97.172302 
	C91.687592,99.771500 90.456261,101.586365 90.055405,103.569122 
	C89.652061,105.564178 89.436089,108.121658 90.387856,109.658813 
	C90.913460,110.507698 95.175430,110.456955 95.682808,109.594231 
	C96.597931,108.038177 96.282417,105.502281 95.876625,103.497978 
	C95.476196,101.520180 94.327515,99.693871 92.970215,96.562408 
	C99.316170,97.806465 104.555023,94.735382 108.942207,99.517731 
	C109.617645,100.253998 112.809151,99.510216 114.144676,98.518517 
	C115.019157,97.869164 115.202789,94.394958 114.733498,94.166985 
	C112.951202,93.301163 110.702721,92.713318 108.764236,92.986053 
	C104.054283,93.648697 99.420319,94.851379 94.361588,95.919754 
	C94.361588,93.112991 94.361588,91.742462 94.361588,90.281525 
	C102.735878,88.913231 114.063988,94.156555 115.535606,79.109985 
	C120.341652,79.780716 124.678864,80.386024 129.283524,81.676735 
	C131.805862,83.775131 134.532379,83.757248 136.041611,80.948814 
	C136.796539,79.544006 136.372513,76.568832 135.298691,75.326431 
	C133.452011,73.189842 130.871887,73.284950 128.489716,76.556137 
	C124.326530,76.880219 119.950920,78.148293 116.057793,77.272240 
	C111.869354,76.329758 108.133453,73.376244 103.748642,71.061882 
	C103.748642,69.917953 103.748642,67.686218 103.748642,64.452911 
	C105.413025,65.556381 106.316055,66.502670 107.396378,66.795975 
	C109.389969,67.337227 112.467056,68.507797 113.369339,67.634850 
	C116.944794,64.175682 119.619301,64.358292 123.058563,67.741974 
	C123.888405,68.558418 126.837425,68.042747 128.222290,67.186287 
	C129.156387,66.608589 129.056137,64.358414 129.418594,62.856392 
	C127.909210,62.531086 126.407616,61.976219 124.888931,61.924625 
	C120.757118,61.784256 116.287430,65.318123 112.503326,60.424751 
	C112.061005,59.852760 109.128342,61.360123 107.309837,61.653019 
	C105.685501,61.914646 103.120422,62.541874 102.503082,61.774616 
	C99.833252,58.456444 97.725899,54.685696 95.373123,51.015961 
	C100.676514,51.015961 106.011368,50.874905 111.334740,51.061543 
	C115.436180,51.205338 119.858093,49.715263 123.390533,53.691933 
	C124.004570,54.383183 127.485985,53.384487 128.844772,52.228252 
	C129.631088,51.559132 129.442780,48.088879 128.594345,47.521099 
	C127.118721,46.533581 123.762222,45.894814 123.009857,46.735218 
	C120.424042,49.623608 117.382195,49.075363 114.305847,49.109993 
	C106.981621,49.192444 99.654778,49.381420 92.334549,49.240017 
	C90.544090,49.205429 87.970436,48.536663 87.240555,47.290482 
	C86.611786,46.216938 88.095367,43.906193 89.111244,41.658173 
	C89.106766,39.990246 89.781174,37.812244 88.978561,36.743980 
	C85.755920,32.454742 85.798225,28.670437 88.829025,24.236147 
	C89.752380,22.885208 89.441811,19.315113 88.319046,18.328102 
	C87.194603,17.339605 83.554146,17.539146 82.486786,18.641533 
	C81.467018,19.694763 81.554230,23.103291 82.525963,24.565020 
	C85.671745,29.297062 85.807579,32.803844 81.524017,37.517601 
	C82.251366,39.489826 82.680656,41.650169 83.778015,43.388863 
	C85.309105,45.814754 85.574760,47.343117 82.222183,47.829636 
	C78.972038,48.301289 75.717392,48.741951 72.086876,49.248993 
	C72.878220,44.076473 70.113930,38.390594 75.300255,33.929104 
	C75.949760,33.370377 75.357529,29.979662 74.352951,29.236809 
	C73.086617,28.300392 70.737709,28.414476 69.002243,28.776703 
	C68.478333,28.886053 68.095642,31.365452 68.242393,32.693554 
	C68.797493,37.717060 69.651306,42.706676 70.286446,47.722511 
	C70.753441,51.410435 68.854134,53.447941 65.411369,54.503483 
	C65.159698,52.623863 64.946846,51.034142 64.727203,49.393742 
	C58.841480,48.271198 52.514648,51.038990 47.497032,46.136120 
	C46.947769,45.599422 43.617290,46.852951 42.679794,48.103210 
	C41.927380,49.106644 42.236088,52.076405 43.179043,52.885265 
	C44.368114,53.905247 47.678570,54.500587 48.346329,53.747456 
	C52.681587,48.857914 57.862423,51.872787 62.744431,51.019634 
	C62.744431,54.389748 62.744431,57.118114 62.744431,58.775028 
	C57.448875,60.266232 52.850395,62.025997 48.096867,62.712990 
	C45.536575,63.083000 42.710648,61.614960 39.657459,60.490837 
	C39.096207,60.359123 38.534950,60.227409 37.292397,60.003277 
	C36.449738,60.584007 35.607075,61.164738 34.697632,61.710346 
M355.500183,87.010262 
	C357.903229,87.010262 360.306274,87.010262 362.853699,87.010262 
	C362.853699,74.037056 363.090149,61.884682 362.780945,49.746204 
	C362.520416,39.517315 356.721100,33.894512 346.761688,32.787415 
	C338.767944,31.898819 332.385254,34.386745 327.378693,41.151920 
	C324.100006,34.721218 318.503021,32.714561 312.016785,32.477066 
	C305.393646,32.234562 300.199188,35.526951 295.365417,40.500309 
	C295.187378,37.716599 295.075378,35.965645 294.966614,34.265495 
	C290.322205,34.265495 286.077118,34.265495 281.757019,34.265495 
	C281.757019,51.959835 281.757019,69.355049 281.757019,86.683327 
	C286.659790,86.683327 291.231995,86.683327 296.006714,86.683327 
	C296.006714,76.879074 295.921783,67.403931 296.061859,57.932125 
	C296.100586,55.314564 296.349670,52.521755 297.311310,50.135406 
	C299.019806,45.895710 302.452454,43.691612 307.191528,44.088181 
	C312.012054,44.491562 314.190216,47.549671 314.576508,52.018227 
	C314.848083,55.159336 314.805359,58.331745 314.816010,61.490471 
	C314.844299,69.908241 314.825623,78.326157 314.825623,86.710327 
	C320.042938,86.710327 324.609070,86.710327 329.552368,86.710327 
	C329.552368,77.113625 329.476257,67.814011 329.598694,58.517006 
	C329.635468,55.722843 329.871460,52.834099 330.639374,50.168194 
	C331.990875,45.476223 335.660034,43.783012 340.296204,44.073441 
	C345.076233,44.372883 347.420898,47.299015 347.871033,51.808746 
	C348.151245,54.615993 348.124329,57.459526 348.133911,60.287121 
	C348.163574,69.059471 348.144775,77.831978 348.144775,87.010681 
	C350.625732,87.010681 352.586731,87.010681 355.500183,87.010262 
M390.818848,54.634670 
	C389.865295,51.799595 388.909393,48.965294 387.958527,46.129318 
	C383.610352,33.160965 383.610840,33.160366 369.474060,34.148479 
	C369.321167,34.159168 369.174072,34.253178 368.680359,34.434837 
	C369.053589,35.643829 369.371948,36.894119 369.820984,38.095581 
	C374.008209,49.299274 378.219025,60.494164 382.420502,71.692535 
	C383.936981,75.734497 385.684814,79.708603 386.905334,83.838326 
	C388.864105,90.465935 385.644470,94.181396 378.783295,93.622948 
	C377.177002,93.492210 375.564240,93.440857 373.804565,93.344803 
	C373.804565,97.433472 373.804565,101.156097 373.804565,104.809540 
	C393.237701,108.293648 398.410034,101.592613 402.289581,89.648033 
	C405.158447,80.815117 408.734070,72.212105 411.981903,63.501846 
	C415.601868,53.793591 419.207153,44.079865 422.958252,33.993702 
	C419.631348,33.993702 416.923737,34.315151 414.322876,33.924946 
	C409.332581,33.176243 407.075287,34.975803 405.735229,39.988575 
	C403.118530,49.776714 399.646240,59.336124 396.071808,70.403236 
	C394.062927,64.424759 392.546631,59.912270 390.818848,54.634670 
M234.564804,63.377758 
	C234.564804,53.646908 234.564804,43.916054 234.564804,34.308189 
	C229.182724,34.308189 224.597534,34.308189 219.996231,34.308189 
	C219.996231,46.775772 219.725220,58.921707 220.076569,71.049614 
	C220.393661,81.993942 225.929535,87.395103 236.792892,88.347816 
	C244.388016,89.013901 250.781799,86.720123 255.990936,79.301086 
	C255.990936,82.596504 255.990936,84.632286 255.990936,86.665329 
	C260.810638,86.665329 265.198090,86.665329 269.498962,86.665329 
	C269.498962,68.937035 269.498962,51.558182 269.498962,34.343338 
	C264.548523,34.343338 259.973297,34.343338 254.965408,34.343338 
	C254.965408,44.996326 255.137466,55.299244 254.901871,65.592827 
	C254.757080,71.919388 251.763840,75.600456 246.795410,76.697624 
	C238.860291,78.449921 235.166336,74.716331 234.564804,63.377758 
M180.187134,56.693432 
	C176.209045,61.173141 172.569305,66.024323 168.164886,70.035980 
	C162.976181,74.761993 162.032837,80.208992 163.449066,86.783112 
	C179.465195,86.783112 195.527588,86.783112 211.756653,86.783112 
	C211.756653,83.158867 211.756653,79.762833 211.756653,75.933319 
	C202.146744,75.933319 192.771698,75.933319 182.420288,75.933319 
	C190.328598,67.051765 197.213882,58.525822 204.972992,50.887524 
	C210.040619,45.898796 210.701996,40.593971 209.672287,34.276993 
	C194.750214,34.276993 180.021454,34.276993 165.298767,34.276993 
	C165.298767,37.959484 165.298767,41.356575 165.298767,45.192932 
	C173.628357,45.192932 181.659576,45.192932 190.491241,45.192932 
	C186.824066,49.289577 183.743988,52.730347 180.187134,56.693432 
z"/>
<path fill="#55CFA7" opacity="1.000000" stroke="none" 
	d="
M29.414560,76.761620 
	C31.958364,78.303307 33.770020,78.056061 36.225155,75.794838 
	C39.528866,72.752068 44.705994,71.541298 44.562218,65.269936 
	C43.659649,65.451347 42.670883,65.650085 41.322067,65.628952 
	C40.642864,63.931458 40.323715,62.453846 40.004570,60.976231 
	C42.710648,61.614960 45.536575,63.083000 48.096867,62.712990 
	C52.850395,62.025997 57.448875,60.266232 62.744431,58.775028 
	C62.744431,57.118114 62.744431,54.389748 62.744431,51.019634 
	C57.862423,51.872787 52.681587,48.857914 48.346329,53.747456 
	C47.678570,54.500587 44.368114,53.905247 43.179043,52.885265 
	C42.236088,52.076405 41.927380,49.106644 42.679794,48.103210 
	C43.617290,46.852951 46.947769,45.599422 47.497032,46.136120 
	C52.514648,51.038990 58.841480,48.271198 64.727203,49.393742 
	C64.946846,51.034142 65.159698,52.623863 65.411369,54.503483 
	C68.854134,53.447941 70.753441,51.410435 70.286446,47.722511 
	C69.651306,42.706676 68.797493,37.717060 68.242393,32.693554 
	C68.095642,31.365452 68.478333,28.886053 69.002243,28.776703 
	C70.737709,28.414476 73.086617,28.300392 74.352951,29.236809 
	C75.357529,29.979662 75.949760,33.370377 75.300255,33.929104 
	C70.113930,38.390594 72.878220,44.076473 72.086876,49.248993 
	C75.717392,48.741951 78.972038,48.301289 82.222183,47.829636 
	C85.574760,47.343117 85.309105,45.814754 83.778015,43.388863 
	C82.680656,41.650169 82.251366,39.489826 82.039612,37.481129 
	C84.585136,39.010590 86.615074,40.576519 88.645012,42.142452 
	C88.095367,43.906193 86.611786,46.216938 87.240555,47.290482 
	C87.970436,48.536663 90.544090,49.205429 92.334549,49.240017 
	C99.654778,49.381420 106.981621,49.192444 114.305847,49.109993 
	C117.382195,49.075363 120.424042,49.623608 123.009857,46.735218 
	C123.762222,45.894814 127.118721,46.533581 128.594345,47.521099 
	C129.442780,48.088879 129.631088,51.559132 128.844772,52.228252 
	C127.485985,53.384487 124.004570,54.383183 123.390533,53.691933 
	C119.858093,49.715263 115.436180,51.205338 111.334740,51.061543 
	C106.011368,50.874905 100.676514,51.015961 95.373123,51.015961 
	C97.725899,54.685696 99.833252,58.456444 102.503082,61.774616 
	C103.120422,62.541874 105.685501,61.914646 107.309837,61.653019 
	C109.128342,61.360123 112.061005,59.852760 112.503326,60.424751 
	C116.287430,65.318123 120.757118,61.784256 124.888931,61.924625 
	C126.407616,61.976219 127.909210,62.531086 129.418594,62.856392 
	C129.056137,64.358414 129.156387,66.608589 128.222290,67.186287 
	C126.837425,68.042747 123.888405,68.558418 123.058563,67.741974 
	C119.619301,64.358292 116.944794,64.175682 113.369339,67.634850 
	C112.467056,68.507797 109.389969,67.337227 107.396378,66.795975 
	C106.316055,66.502670 105.413025,65.556381 103.748642,64.452911 
	C103.748642,67.686218 103.748642,69.917953 103.748642,71.061882 
	C108.133453,73.376244 111.869354,76.329758 116.057793,77.272240 
	C119.950920,78.148293 124.326530,76.880219 129.002853,76.456909 
	C129.349350,77.902237 129.182709,79.446785 129.016083,80.991333 
	C124.678864,80.386024 120.341652,79.780716 115.535606,79.109985 
	C114.063988,94.156555 102.735878,88.913231 94.361588,90.281525 
	C94.361588,91.742462 94.361588,93.112991 94.361588,95.919754 
	C99.420319,94.851379 104.054283,93.648697 108.764236,92.986053 
	C110.702721,92.713318 112.951202,93.301163 114.733498,94.166985 
	C115.202789,94.394958 115.019157,97.869164 114.144676,98.518517 
	C112.809151,99.510216 109.617645,100.253998 108.942207,99.517731 
	C104.555023,94.735382 99.316170,97.806465 92.970215,96.562408 
	C94.327515,99.693871 95.476196,101.520180 95.876625,103.497978 
	C96.282417,105.502281 96.597931,108.038177 95.682808,109.594231 
	C95.175430,110.456955 90.913460,110.507698 90.387856,109.658813 
	C89.436089,108.121658 89.652061,105.564178 90.055405,103.569122 
	C90.456261,101.586365 91.687592,99.771500 92.881088,97.172302 
	C87.978111,97.172302 84.365646,97.172302 79.975479,97.172302 
	C80.801811,102.514412 77.837212,108.050034 81.681747,113.806725 
	C80.048630,116.333870 78.429230,118.237633 76.809830,120.141388 
	C76.220497,118.504837 75.631172,116.868286 75.489731,115.193344 
	C76.044930,115.213669 76.152222,115.272377 76.259521,115.331085 
	C76.107597,115.143242 75.955666,114.955399 75.803741,114.767555 
	C76.836983,109.136978 77.870232,103.506401 78.972694,97.498650 
	C76.153748,97.076836 74.581909,96.841637 72.699951,96.560028 
	C72.466888,94.612961 72.235016,92.675903 71.960411,90.381821 
	C69.928864,90.381821 67.871979,90.381821 65.499168,90.381821 
	C65.258095,94.281357 63.861637,98.133667 67.794777,101.319405 
	C68.586258,101.960487 68.642616,104.840851 67.895744,105.739380 
	C66.757378,107.108902 64.623009,107.650551 61.776859,109.135941 
	C62.318794,101.934563 62.747372,96.239471 63.197144,90.262779 
	C59.303051,90.262779 56.033997,90.262779 52.178658,90.262779 
	C52.178658,93.348579 52.178658,96.406212 52.178658,100.148094 
	C49.180595,100.148094 46.692978,99.814819 44.341412,100.237839 
	C41.770691,100.700272 39.377865,102.130714 36.808548,102.628883 
	C34.963402,102.986641 32.129749,103.228806 31.238041,102.209480 
	C30.215656,101.040779 30.047014,97.736427 30.993341,96.624908 
	C31.939634,95.513420 35.745682,95.031013 36.526409,95.887619 
	C40.532898,100.283546 45.188271,97.327637 49.797707,98.478271 
	C49.797707,95.323997 49.797707,92.931198 49.797707,90.015800 
	C47.953018,90.015800 46.332962,90.024597 44.713032,90.014290 
	C37.574516,89.968849 36.151817,88.774414 33.739040,81.813057 
	C33.433067,80.930267 31.419641,80.639275 29.693047,79.742989 
	C29.264069,78.528450 29.339315,77.645035 29.414560,76.761620 
M89.189758,94.985977 
	C93.323845,94.993065 91.831871,92.454102 91.681183,90.365814 
	C85.729652,90.365814 80.177490,90.365814 74.379784,90.365814 
	C74.462341,92.016205 74.525200,93.272820 74.611115,94.990486 
	C79.354950,94.990486 83.803833,94.990486 89.189758,94.985977 
z"/>
<path fill="#3D4149" opacity="1.000000" stroke="none" 
	d="
M355.023956,87.010468 
	C352.586731,87.010681 350.625732,87.010681 348.144775,87.010681 
	C348.144775,77.831978 348.163574,69.059471 348.133911,60.287121 
	C348.124329,57.459526 348.151245,54.615993 347.871033,51.808746 
	C347.420898,47.299015 345.076233,44.372883 340.296204,44.073441 
	C335.660034,43.783012 331.990875,45.476223 330.639374,50.168194 
	C329.871460,52.834099 329.635468,55.722843 329.598694,58.517006 
	C329.476257,67.814011 329.552368,77.113625 329.552368,86.710327 
	C324.609070,86.710327 320.042938,86.710327 314.825623,86.710327 
	C314.825623,78.326157 314.844299,69.908241 314.816010,61.490471 
	C314.805359,58.331745 314.848083,55.159336 314.576508,52.018227 
	C314.190216,47.549671 312.012054,44.491562 307.191528,44.088181 
	C302.452454,43.691612 299.019806,45.895710 297.311310,50.135406 
	C296.349670,52.521755 296.100586,55.314564 296.061859,57.932125 
	C295.921783,67.403931 296.006714,76.879074 296.006714,86.683327 
	C291.231995,86.683327 286.659790,86.683327 281.757019,86.683327 
	C281.757019,69.355049 281.757019,51.959835 281.757019,34.265495 
	C286.077118,34.265495 290.322205,34.265495 294.966614,34.265495 
	C295.075378,35.965645 295.187378,37.716599 295.365417,40.500309 
	C300.199188,35.526951 305.393646,32.234562 312.016785,32.477066 
	C318.503021,32.714561 324.100006,34.721218 327.378693,41.151920 
	C332.385254,34.386745 338.767944,31.898819 346.761688,32.787415 
	C356.721100,33.894512 362.520416,39.517315 362.780945,49.746204 
	C363.090149,61.884682 362.853699,74.037056 362.853699,87.010262 
	C360.306274,87.010262 357.903229,87.010262 355.023956,87.010468 
z"/>
<path fill="#3D4149" opacity="1.000000" stroke="none" 
	d="
M390.924622,55.017220 
	C392.546631,59.912270 394.062927,64.424759 396.071808,70.403236 
	C399.646240,59.336124 403.118530,49.776714 405.735229,39.988575 
	C407.075287,34.975803 409.332581,33.176243 414.322876,33.924946 
	C416.923737,34.315151 419.631348,33.993702 422.958252,33.993702 
	C419.207153,44.079865 415.601868,53.793591 411.981903,63.501846 
	C408.734070,72.212105 405.158447,80.815117 402.289581,89.648033 
	C398.410034,101.592613 393.237701,108.293648 373.804565,104.809540 
	C373.804565,101.156097 373.804565,97.433472 373.804565,93.344803 
	C375.564240,93.440857 377.177002,93.492210 378.783295,93.622948 
	C385.644470,94.181396 388.864105,90.465935 386.905334,83.838326 
	C385.684814,79.708603 383.936981,75.734497 382.420502,71.692535 
	C378.219025,60.494164 374.008209,49.299274 369.820984,38.095581 
	C369.371948,36.894119 369.053589,35.643829 368.680359,34.434837 
	C369.174072,34.253178 369.321167,34.159168 369.474060,34.148479 
	C383.610840,33.160366 383.610352,33.160965 387.958527,46.129318 
	C388.909393,48.965294 389.865295,51.799595 390.924622,55.017220 
z"/>
<path fill="#3E424A" opacity="1.000000" stroke="none" 
	d="
M234.564545,63.856522 
	C235.166336,74.716331 238.860291,78.449921 246.795410,76.697624 
	C251.763840,75.600456 254.757080,71.919388 254.901871,65.592827 
	C255.137466,55.299244 254.965408,44.996326 254.965408,34.343338 
	C259.973297,34.343338 264.548523,34.343338 269.498962,34.343338 
	C269.498962,51.558182 269.498962,68.937035 269.498962,86.665329 
	C265.198090,86.665329 260.810638,86.665329 255.990936,86.665329 
	C255.990936,84.632286 255.990936,82.596504 255.990936,79.301086 
	C250.781799,86.720123 244.388016,89.013901 236.792892,88.347816 
	C225.929535,87.395103 220.393661,81.993942 220.076569,71.049614 
	C219.725220,58.921707 219.996231,46.775772 219.996231,34.308189 
	C224.597534,34.308189 229.182724,34.308189 234.564804,34.308189 
	C234.564804,43.916054 234.564804,53.646908 234.564545,63.856522 
z"/>
<path fill="#3B3F47" opacity="1.000000" stroke="none" 
	d="
M180.425537,56.432274 
	C183.743988,52.730347 186.824066,49.289577 190.491241,45.192932 
	C181.659576,45.192932 173.628357,45.192932 165.298767,45.192932 
	C165.298767,41.356575 165.298767,37.959484 165.298767,34.276993 
	C180.021454,34.276993 194.750214,34.276993 209.672287,34.276993 
	C210.701996,40.593971 210.040619,45.898796 204.972992,50.887524 
	C197.213882,58.525822 190.328598,67.051765 182.420288,75.933319 
	C192.771698,75.933319 202.146744,75.933319 211.756653,75.933319 
	C211.756653,79.762833 211.756653,83.158867 211.756653,86.783112 
	C195.527588,86.783112 179.465195,86.783112 163.449066,86.783112 
	C162.032837,80.208992 162.976181,74.761993 168.164886,70.035980 
	C172.569305,66.024323 176.209045,61.173141 180.425537,56.432274 
z"/>
<path fill="#6CD4B2" opacity="1.000000" stroke="none" 
	d="
M88.878128,41.900314 
	C86.615074,40.576519 84.585136,39.010590 82.288147,37.229702 
	C85.807579,32.803844 85.671745,29.297062 82.525963,24.565020 
	C81.554230,23.103291 81.467018,19.694763 82.486786,18.641533 
	C83.554146,17.539146 87.194603,17.339605 88.319046,18.328102 
	C89.441811,19.315113 89.752380,22.885208 88.829025,24.236147 
	C85.798225,28.670437 85.755920,32.454742 88.978561,36.743980 
	C89.781174,37.812244 89.106766,39.990246 88.878128,41.900314 
z"/>
<path fill="#67D4AF" opacity="1.000000" stroke="none" 
	d="
M29.386370,76.765869 
	C29.339315,77.645035 29.264069,78.528450 29.301113,79.846535 
	C29.413404,80.281204 29.364584,80.281105 29.003479,80.215607 
	C28.506615,80.815407 28.370857,81.480690 28.235100,82.145981 
	C26.333771,82.000542 24.422283,81.933678 22.533718,81.689522 
	C20.241108,81.393112 17.967838,80.947113 15.064201,80.584152 
	C12.383523,77.759285 10.328771,79.325485 8.273766,80.607971 
	C8.373553,78.810951 7.866784,75.925011 8.706892,75.457047 
	C10.185428,74.633476 13.309039,74.475327 14.293332,75.471588 
	C17.541473,78.759201 19.922501,77.997437 23.123631,75.485687 
	C24.302557,74.560638 26.821003,75.342758 28.719959,75.764336 
	C28.908903,76.384071 29.106358,76.585678 29.303812,76.787285 
	C29.303812,76.787285 29.358179,76.770111 29.386370,76.765869 
z"/>
<path fill="#6AD4B0" opacity="1.000000" stroke="none" 
	d="
M129.149796,81.334030 
	C129.182709,79.446785 129.349350,77.902237 129.300476,76.205513 
	C130.871887,73.284950 133.452011,73.189842 135.298691,75.326431 
	C136.372513,76.568832 136.796539,79.544006 136.041611,80.948814 
	C134.532379,83.757248 131.805862,83.775131 129.149796,81.334030 
z"/>
<path fill="#60D2AB" opacity="1.000000" stroke="none" 
	d="
M27.935469,65.169159 
	C26.045145,68.443428 23.772875,70.371651 19.561377,67.143661 
	C21.432661,64.987434 23.194538,62.957272 25.001131,60.875584 
	C26.383013,61.799545 27.582201,62.601357 28.750628,63.768517 
	C28.458401,64.478966 28.196934,64.824059 27.935469,65.169159 
z"/>
<path fill="#55CFA7" opacity="1.000000" stroke="none" 
	d="
M28.345051,65.166107 
	C28.196934,64.824059 28.458401,64.478966 29.003815,63.964733 
	C30.883327,63.227615 32.478893,62.659630 34.479279,62.241188 
	C36.852119,63.917923 38.820137,65.445114 40.788158,66.972313 
	C38.968189,69.822815 36.887585,68.919685 34.553085,67.601776 
	C32.739384,66.577873 30.695957,65.960899 28.345051,65.166107 
z"/>
<path fill="#69D4B0" opacity="1.000000" stroke="none" 
	d="
M77.066803,120.414169 
	C78.429230,118.237633 80.048630,116.333870 81.890984,114.139633 
	C84.075630,118.903603 82.766785,120.771927 77.066803,120.414169 
z"/>
<path fill="#60D2AB" opacity="1.000000" stroke="none" 
	d="
M40.893078,66.784225 
	C38.820137,65.445114 36.852119,63.917923 34.753540,62.045074 
	C34.622978,61.699417 34.697632,61.710346 35.064442,61.793243 
	C36.278732,61.282658 37.126217,60.689175 37.973701,60.095695 
	C38.534950,60.227409 39.096207,60.359123 39.831017,60.733536 
	C40.323715,62.453846 40.642864,63.931458 41.010071,65.789352 
	C41.058132,66.169632 40.997997,66.596146 40.893078,66.784225 
z"/>
<path fill="#6DD5B2" opacity="1.000000" stroke="none" 
	d="
M8.312938,80.966858 
	C10.328771,79.325485 12.383523,77.759285 14.740932,80.813965 
	C12.935743,83.915215 10.701383,83.900024 8.312938,80.966858 
z"/>
<path fill="#55CFA7" opacity="1.000000" stroke="none" 
	d="
M37.633049,60.049484 
	C37.126217,60.689175 36.278732,61.282658 35.097832,61.810806 
	C35.607075,61.164738 36.449738,60.584007 37.633049,60.049484 
z"/>
<path fill="#55CFA7" opacity="1.000000" stroke="none" 
	d="
M28.497698,81.998642 
	C28.370857,81.480690 28.506615,80.815407 28.979069,80.215157 
	C29.130608,80.803902 28.945452,81.327599 28.497698,81.998642 
z"/>
<path fill="#55CFA7" opacity="1.000000" stroke="none" 
	d="
M29.342735,76.555420 
	C29.106358,76.585678 28.908903,76.384071 28.888672,76.078796 
	C29.065891,75.975136 29.381657,76.323555 29.342735,76.555420 
z"/>
<path fill="#F9FDFC" opacity="1.000000" stroke="none" 
	d="
M88.721237,94.988235 
	C83.803833,94.990486 79.354950,94.990486 74.611115,94.990486 
	C74.525200,93.272820 74.462341,92.016205 74.379784,90.365814 
	C80.177490,90.365814 85.729652,90.365814 91.681183,90.365814 
	C91.831871,92.454102 93.323845,94.993065 88.721237,94.988235 
z"/>
<path fill="#69D4B0" opacity="1.000000" stroke="none" 
	d="
M75.807907,114.829254 
	C75.955666,114.955399 76.107597,115.143242 76.259521,115.331085 
	C76.152222,115.272377 76.044930,115.213669 75.813736,115.013550 
	C75.689835,114.872139 75.812073,114.890945 75.807907,114.829254 
z"/>
</svg>